<?xml version="1.0" encoding="UTF-8" standalone="no"?>
<!DOCTYPE svg PUBLIC "-//W3C//DTD SVG 1.1//EN"
 "http://www.w3.org/Graphics/SVG/1.1/DTD/svg11.dtd">
<!-- Generated by graphviz version 2.38.0 (20140413.2041)
 -->
<!-- Title: snakemake_dag Pages: 1 -->
<svg width="2049pt" height="1126pt"
 viewBox="0.00 0.00 2049.00 1126.00" xmlns="http://www.w3.org/2000/svg" xmlns:xlink="http://www.w3.org/1999/xlink">
<g id="graph0" class="graph" transform="scale(1 1) rotate(0) translate(4 1122)">
<title>snakemake_dag</title>
<polygon fill="white" stroke="none" points="-4,4 -4,-1122 2045,-1122 2045,4 -4,4"/>
<!-- 0 -->
<g id="node1" class="node"><title>0</title>
<path fill="none" stroke="#56b1d8" stroke-width="2" d="M980,-36C980,-36 950,-36 950,-36 944,-36 938,-30 938,-24 938,-24 938,-12 938,-12 938,-6 944,-0 950,-0 950,-0 980,-0 980,-0 986,-0 992,-6 992,-12 992,-12 992,-24 992,-24 992,-30 986,-36 980,-36"/>
<text text-anchor="middle" x="965" y="-15" font-family="sans" font-size="10.00">all</text>
</g>
<!-- 1 -->
<g id="node2" class="node"><title>1</title>
<path fill="none" stroke="#56d0d8" stroke-width="2" d="M1837.74,-108C1837.74,-108 1788.26,-108 1788.26,-108 1782.26,-108 1776.26,-102 1776.26,-96 1776.26,-96 1776.26,-84 1776.26,-84 1776.26,-78 1782.26,-72 1788.26,-72 1788.26,-72 1837.74,-72 1837.74,-72 1843.74,-72 1849.74,-78 1849.74,-84 1849.74,-84 1849.74,-96 1849.74,-96 1849.74,-102 1843.74,-108 1837.74,-108"/>
<text text-anchor="middle" x="1813" y="-87" font-family="sans" font-size="10.00">calc_prs_Tm</text>
</g>
<!-- 1&#45;&gt;0 -->
<g id="edge1" class="edge"><title>1&#45;&gt;0</title>
<path fill="none" stroke="grey" stroke-width="2" d="M1776.34,-80.6981C1761.15,-77.5327 1743.29,-74.1683 1727,-72 1450.3,-35.1781 1113.46,-23.0771 1002.45,-19.9383"/>
<polygon fill="grey" stroke="grey" stroke-width="2" points="1002.21,-16.4306 992.12,-19.654 1002.02,-23.4279 1002.21,-16.4306"/>
</g>
<!-- 2 -->
<g id="node3" class="node"><title>2</title>
<path fill="none" stroke="#56d0d8" stroke-width="2" d="M603.737,-108C603.737,-108 554.263,-108 554.263,-108 548.263,-108 542.263,-102 542.263,-96 542.263,-96 542.263,-84 542.263,-84 542.263,-78 548.263,-72 554.263,-72 554.263,-72 603.737,-72 603.737,-72 609.737,-72 615.737,-78 615.737,-84 615.737,-84 615.737,-96 615.737,-96 615.737,-102 609.737,-108 603.737,-108"/>
<text text-anchor="middle" x="579" y="-87" font-family="sans" font-size="10.00">calc_prs_Tm</text>
</g>
<!-- 2&#45;&gt;0 -->
<g id="edge2" class="edge"><title>2&#45;&gt;0</title>
<path fill="none" stroke="grey" stroke-width="2" d="M615.662,-82.3515C689.023,-69.0477 853.185,-39.2773 927.352,-25.8274"/>
<polygon fill="grey" stroke="grey" stroke-width="2" points="928.405,-29.1936 937.62,-23.9653 927.156,-22.3059 928.405,-29.1936"/>
</g>
<!-- 3 -->
<g id="node4" class="node"><title>3</title>
<path fill="none" stroke="#d86656" stroke-width="2" d="M1737.2,-396C1737.2,-396 1688.8,-396 1688.8,-396 1682.8,-396 1676.8,-390 1676.8,-384 1676.8,-384 1676.8,-372 1676.8,-372 1676.8,-366 1682.8,-360 1688.8,-360 1688.8,-360 1737.2,-360 1737.2,-360 1743.2,-360 1749.2,-366 1749.2,-372 1749.2,-372 1749.2,-384 1749.2,-384 1749.2,-390 1743.2,-396 1737.2,-396"/>
<text text-anchor="middle" x="1713" y="-375" font-family="sans" font-size="10.00">calc_true_gv</text>
</g>
<!-- 3&#45;&gt;0 -->
<g id="edge3" class="edge"><title>3&#45;&gt;0</title>
<path fill="none" stroke="grey" stroke-width="2" d="M1713,-359.951C1713,-333.292 1713,-280.115 1713,-235 1713,-235 1713,-235 1713,-161 1713,-87.8264 1153.35,-34.9969 1002.23,-22.065"/>
<polygon fill="grey" stroke="grey" stroke-width="2" points="1002.32,-18.5609 992.064,-21.2032 1001.73,-25.5359 1002.32,-18.5609"/>
</g>
<!-- 4 -->
<g id="node5" class="node"><title>4</title>
<path fill="none" stroke="#d86656" stroke-width="2" d="M88.1998,-396C88.1998,-396 39.8002,-396 39.8002,-396 33.8002,-396 27.8002,-390 27.8002,-384 27.8002,-384 27.8002,-372 27.8002,-372 27.8002,-366 33.8002,-360 39.8002,-360 39.8002,-360 88.1998,-360 88.1998,-360 94.1998,-360 100.2,-366 100.2,-372 100.2,-372 100.2,-384 100.2,-384 100.2,-390 94.1998,-396 88.1998,-396"/>
<text text-anchor="middle" x="64" y="-375" font-family="sans" font-size="10.00">calc_true_gv</text>
</g>
<!-- 4&#45;&gt;0 -->
<g id="edge4" class="edge"><title>4&#45;&gt;0</title>
<path fill="none" stroke="grey" stroke-width="2" d="M58.7385,-359.698C51.1412,-333.142 38,-280.614 38,-235 38,-235 38,-235 38,-161 38,-97.7669 90.0541,-94.8866 149,-72 293.78,-15.787 787.156,-16.9471 927.487,-18.4712"/>
<polygon fill="grey" stroke="grey" stroke-width="2" points="927.684,-21.9736 937.724,-18.5901 927.765,-14.9741 927.684,-21.9736"/>
</g>
<!-- 5 -->
<g id="node6" class="node"><title>5</title>
<path fill="none" stroke="#d8c356" stroke-width="2" d="M1367,-108C1367,-108 1337,-108 1337,-108 1331,-108 1325,-102 1325,-96 1325,-96 1325,-84 1325,-84 1325,-78 1331,-72 1337,-72 1337,-72 1367,-72 1367,-72 1373,-72 1379,-78 1379,-84 1379,-84 1379,-96 1379,-96 1379,-102 1373,-108 1367,-108"/>
<text text-anchor="middle" x="1352" y="-87" font-family="sans" font-size="10.00">calc_prs</text>
</g>
<!-- 5&#45;&gt;0 -->
<g id="edge5" class="edge"><title>5&#45;&gt;0</title>
<path fill="none" stroke="grey" stroke-width="2" d="M1324.79,-84.0777C1256.92,-71.8025 1080.08,-39.8159 1002.46,-25.775"/>
<polygon fill="grey" stroke="grey" stroke-width="2" points="1002.65,-22.2527 992.183,-23.9168 1001.4,-29.1409 1002.65,-22.2527"/>
</g>
<!-- 6 -->
<g id="node7" class="node"><title>6</title>
<path fill="none" stroke="#d8c356" stroke-width="2" d="M200,-108C200,-108 170,-108 170,-108 164,-108 158,-102 158,-96 158,-96 158,-84 158,-84 158,-78 164,-72 170,-72 170,-72 200,-72 200,-72 206,-72 212,-78 212,-84 212,-84 212,-96 212,-96 212,-102 206,-108 200,-108"/>
<text text-anchor="middle" x="185" y="-87" font-family="sans" font-size="10.00">calc_prs</text>
</g>
<!-- 6&#45;&gt;0 -->
<g id="edge6" class="edge"><title>6&#45;&gt;0</title>
<path fill="none" stroke="grey" stroke-width="2" d="M212.303,-86.5497C329.785,-76.0065 792.393,-34.4903 927.662,-22.3508"/>
<polygon fill="grey" stroke="grey" stroke-width="2" points="928.271,-25.8103 937.918,-21.4304 927.646,-18.8383 928.271,-25.8103"/>
</g>
<!-- 7 -->
<g id="node8" class="node"><title>7</title>
<path fill="none" stroke="#56c1d8" stroke-width="2" d="M1704.31,-612C1704.31,-612 1549.69,-612 1549.69,-612 1543.69,-612 1537.69,-606 1537.69,-600 1537.69,-600 1537.69,-588 1537.69,-588 1537.69,-582 1543.69,-576 1549.69,-576 1549.69,-576 1704.31,-576 1704.31,-576 1710.31,-576 1716.31,-582 1716.31,-588 1716.31,-588 1716.31,-600 1716.31,-600 1716.31,-606 1710.31,-612 1704.31,-612"/>
<text text-anchor="middle" x="1627" y="-591" font-family="sans" font-size="10.00">remake_panels_with_common_snps</text>
</g>
<!-- 7&#45;&gt;1 -->
<g id="edge7" class="edge"><title>7&#45;&gt;1</title>
<path fill="none" stroke="grey" stroke-width="2" d="M1716.17,-590.124C1812.28,-585.357 1957.36,-572.804 2001,-540 2035.67,-513.942 2041,-494.367 2041,-451 2041,-451 2041,-451 2041,-233 2041,-148.281 1926.17,-112.291 1859.5,-98.5349"/>
<polygon fill="grey" stroke="grey" stroke-width="2" points="1860.12,-95.0903 1849.63,-96.5885 1858.77,-101.958 1860.12,-95.0903"/>
</g>
<!-- 7&#45;&gt;3 -->
<g id="edge13" class="edge"><title>7&#45;&gt;3</title>
<path fill="none" stroke="grey" stroke-width="2" d="M1645.24,-575.947C1680.89,-542.568 1756.49,-471.531 1758,-468 1764.3,-453.291 1763.52,-447.019 1758,-432 1754.22,-421.696 1747.44,-412.025 1740.28,-403.837"/>
<polygon fill="grey" stroke="grey" stroke-width="2" points="1742.77,-401.375 1733.38,-396.469 1737.66,-406.16 1742.77,-401.375"/>
</g>
<!-- 7&#45;&gt;5 -->
<g id="edge19" class="edge"><title>7&#45;&gt;5</title>
<path fill="none" stroke="grey" stroke-width="2" d="M1540.44,-575.974C1436.22,-552.939 1275,-508.083 1275,-451 1275,-451 1275,-451 1275,-233 1275,-187.507 1305.92,-142.651 1328.57,-115.892"/>
<polygon fill="grey" stroke="grey" stroke-width="2" points="1331.36,-118.024 1335.29,-108.188 1326.08,-113.422 1331.36,-118.024"/>
</g>
<!-- 9 -->
<g id="node10" class="node"><title>9</title>
<path fill="none" stroke="#d85656" stroke-width="2" d="M1737.1,-468C1737.1,-468 1684.9,-468 1684.9,-468 1678.9,-468 1672.9,-462 1672.9,-456 1672.9,-456 1672.9,-444 1672.9,-444 1672.9,-438 1678.9,-432 1684.9,-432 1684.9,-432 1737.1,-432 1737.1,-432 1743.1,-432 1749.1,-438 1749.1,-444 1749.1,-444 1749.1,-456 1749.1,-456 1749.1,-462 1743.1,-468 1737.1,-468"/>
<text text-anchor="middle" x="1711" y="-447" font-family="sans" font-size="10.00">test_snp_freq</text>
</g>
<!-- 7&#45;&gt;9 -->
<g id="edge29" class="edge"><title>7&#45;&gt;9</title>
<path fill="none" stroke="grey" stroke-width="2" d="M1628.66,-575.763C1631.13,-556.924 1637.08,-526.437 1651,-504 1657.81,-493.02 1667.59,-483.026 1677.28,-474.748"/>
<polygon fill="grey" stroke="grey" stroke-width="2" points="1679.77,-477.234 1685.33,-468.215 1675.36,-471.798 1679.77,-477.234"/>
</g>
<!-- 19 -->
<g id="node20" class="node"><title>19</title>
<path fill="none" stroke="#d8d356" stroke-width="2" d="M1865.85,-252C1865.85,-252 1830.15,-252 1830.15,-252 1824.15,-252 1818.15,-246 1818.15,-240 1818.15,-240 1818.15,-228 1818.15,-228 1818.15,-222 1824.15,-216 1830.15,-216 1830.15,-216 1865.85,-216 1865.85,-216 1871.85,-216 1877.85,-222 1877.85,-228 1877.85,-228 1877.85,-240 1877.85,-240 1877.85,-246 1871.85,-252 1865.85,-252"/>
<text text-anchor="middle" x="1848" y="-231" font-family="sans" font-size="10.00">gwas_Tm</text>
</g>
<!-- 7&#45;&gt;19 -->
<g id="edge44" class="edge"><title>7&#45;&gt;19</title>
<path fill="none" stroke="grey" stroke-width="2" d="M1716.21,-579.708C1764.38,-570.735 1817.33,-557.357 1834,-540 1862.02,-510.829 1853,-491.447 1853,-451 1853,-451 1853,-451 1853,-377 1853,-336.971 1850.99,-290.635 1849.52,-262.07"/>
<polygon fill="grey" stroke="grey" stroke-width="2" points="1853.01,-261.843 1848.99,-252.042 1846.02,-262.214 1853.01,-261.843"/>
</g>
<!-- 23 -->
<g id="node24" class="node"><title>23</title>
<path fill="none" stroke="#56d85b" stroke-width="2" d="M1587.32,-540C1587.32,-540 1512.68,-540 1512.68,-540 1506.68,-540 1500.68,-534 1500.68,-528 1500.68,-528 1500.68,-516 1500.68,-516 1500.68,-510 1506.68,-504 1512.68,-504 1512.68,-504 1587.32,-504 1587.32,-504 1593.32,-504 1599.32,-510 1599.32,-516 1599.32,-516 1599.32,-528 1599.32,-528 1599.32,-534 1593.32,-540 1587.32,-540"/>
<text text-anchor="middle" x="1550" y="-519" font-family="sans" font-size="10.00">common_snp_freq</text>
</g>
<!-- 7&#45;&gt;23 -->
<g id="edge55" class="edge"><title>7&#45;&gt;23</title>
<path fill="none" stroke="grey" stroke-width="2" d="M1607.97,-575.697C1598.46,-567.05 1586.79,-556.449 1576.43,-547.027"/>
<polygon fill="grey" stroke="grey" stroke-width="2" points="1578.57,-544.241 1568.81,-540.104 1573.86,-549.421 1578.57,-544.241"/>
</g>
<!-- 25 -->
<g id="node26" class="node"><title>25</title>
<path fill="none" stroke="#61d856" stroke-width="2" d="M1471,-252C1471,-252 1389,-252 1389,-252 1383,-252 1377,-246 1377,-240 1377,-240 1377,-228 1377,-228 1377,-222 1383,-216 1389,-216 1389,-216 1471,-216 1471,-216 1477,-216 1483,-222 1483,-228 1483,-228 1483,-240 1483,-240 1483,-246 1477,-252 1471,-252"/>
<text text-anchor="middle" x="1430" y="-231" font-family="sans" font-size="10.00">gwas_no_correction</text>
</g>
<!-- 7&#45;&gt;25 -->
<g id="edge57" class="edge"><title>7&#45;&gt;25</title>
<path fill="none" stroke="grey" stroke-width="2" d="M1539.37,-575.951C1513.65,-568.008 1486.64,-556.517 1465,-540 1404.05,-493.483 1404.37,-464.537 1370,-396 1347.87,-351.868 1319.93,-331.107 1344,-288 1351.22,-275.061 1363.05,-264.889 1375.65,-257.067"/>
<polygon fill="grey" stroke="grey" stroke-width="2" points="1377.52,-260.032 1384.45,-252.023 1374.04,-253.959 1377.52,-260.032"/>
</g>
<!-- 31 -->
<g id="node32" class="node"><title>31</title>
<path fill="none" stroke="#ced856" stroke-width="2" d="M1961.86,-396C1961.86,-396 1906.14,-396 1906.14,-396 1900.14,-396 1894.14,-390 1894.14,-384 1894.14,-384 1894.14,-372 1894.14,-372 1894.14,-366 1900.14,-360 1906.14,-360 1906.14,-360 1961.86,-360 1961.86,-360 1967.86,-360 1973.86,-366 1973.86,-372 1973.86,-372 1973.86,-384 1973.86,-384 1973.86,-390 1967.86,-396 1961.86,-396"/>
<text text-anchor="middle" x="1934" y="-375" font-family="sans" font-size="10.00">format_covars</text>
</g>
<!-- 7&#45;&gt;31 -->
<g id="edge69" class="edge"><title>7&#45;&gt;31</title>
<path fill="none" stroke="grey" stroke-width="2" d="M1716.18,-592.545C1810.43,-589.943 1950.08,-579.323 1984,-540 1991.65,-531.134 1994.19,-462.354 1982,-432 1977.75,-421.416 1970.37,-411.603 1962.65,-403.37"/>
<polygon fill="grey" stroke="grey" stroke-width="2" points="1965.1,-400.866 1955.55,-396.277 1960.15,-405.82 1965.1,-400.866"/>
</g>
<!-- 37 -->
<g id="node38" class="node"><title>37</title>
<path fill="none" stroke="#56d882" stroke-width="2" d="M1494.75,-396C1494.75,-396 1391.25,-396 1391.25,-396 1385.25,-396 1379.25,-390 1379.25,-384 1379.25,-384 1379.25,-372 1379.25,-372 1379.25,-366 1385.25,-360 1391.25,-360 1391.25,-360 1494.75,-360 1494.75,-360 1500.75,-360 1506.75,-366 1506.75,-372 1506.75,-372 1506.75,-384 1506.75,-384 1506.75,-390 1500.75,-396 1494.75,-396"/>
<text text-anchor="middle" x="1443" y="-375" font-family="sans" font-size="10.00">generate_genetic_values</text>
</g>
<!-- 7&#45;&gt;37 -->
<g id="edge80" class="edge"><title>7&#45;&gt;37</title>
<path fill="none" stroke="grey" stroke-width="2" d="M1549.38,-575.906C1528.4,-568.005 1507.3,-556.549 1492,-540 1457.49,-502.666 1447.26,-441.705 1444.24,-406.482"/>
<polygon fill="grey" stroke="grey" stroke-width="2" points="1447.73,-406.155 1443.52,-396.432 1440.74,-406.658 1447.73,-406.155"/>
</g>
<!-- 45 -->
<g id="node46" class="node"><title>45</title>
<path fill="none" stroke="#56d892" stroke-width="2" d="M1963.38,-540C1963.38,-540 1892.62,-540 1892.62,-540 1886.62,-540 1880.62,-534 1880.62,-528 1880.62,-528 1880.62,-516 1880.62,-516 1880.62,-510 1886.62,-504 1892.62,-504 1892.62,-504 1963.38,-504 1963.38,-504 1969.38,-504 1975.38,-510 1975.38,-516 1975.38,-516 1975.38,-528 1975.38,-528 1975.38,-534 1969.38,-540 1963.38,-540"/>
<text text-anchor="middle" x="1928" y="-519" font-family="sans" font-size="10.00">convert_to_plink1</text>
</g>
<!-- 7&#45;&gt;45 -->
<g id="edge102" class="edge"><title>7&#45;&gt;45</title>
<path fill="none" stroke="grey" stroke-width="2" d="M1709.46,-575.95C1755.88,-566.061 1814.84,-553.019 1867,-540 1868.26,-539.686 1869.53,-539.364 1870.82,-539.036"/>
<polygon fill="grey" stroke="grey" stroke-width="2" points="1871.99,-542.348 1880.78,-536.434 1870.22,-535.575 1871.99,-542.348"/>
</g>
<!-- 46 -->
<g id="node47" class="node"><title>46</title>
<path fill="none" stroke="#56d8c9" stroke-width="2" d="M1813.43,-540C1813.43,-540 1742.57,-540 1742.57,-540 1736.57,-540 1730.57,-534 1730.57,-528 1730.57,-528 1730.57,-516 1730.57,-516 1730.57,-510 1736.57,-504 1742.57,-504 1742.57,-504 1813.43,-504 1813.43,-504 1819.43,-504 1825.43,-510 1825.43,-516 1825.43,-516 1825.43,-528 1825.43,-528 1825.43,-534 1819.43,-540 1813.43,-540"/>
<text text-anchor="middle" x="1778" y="-519" font-family="sans" font-size="10.00">make_test_vector</text>
</g>
<!-- 7&#45;&gt;46 -->
<g id="edge104" class="edge"><title>7&#45;&gt;46</title>
<path fill="none" stroke="grey" stroke-width="2" d="M1663.94,-575.876C1684.49,-566.349 1710.25,-554.407 1732.09,-544.283"/>
<polygon fill="grey" stroke="grey" stroke-width="2" points="1733.58,-547.45 1741.18,-540.068 1730.64,-541.099 1733.58,-547.45"/>
</g>
<!-- 8 -->
<g id="node9" class="node"><title>8</title>
<path fill="none" stroke="#566bd8" stroke-width="2" d="M1879.08,-180C1879.08,-180 1816.92,-180 1816.92,-180 1810.92,-180 1804.92,-174 1804.92,-168 1804.92,-168 1804.92,-156 1804.92,-156 1804.92,-150 1810.92,-144 1816.92,-144 1816.92,-144 1879.08,-144 1879.08,-144 1885.08,-144 1891.08,-150 1891.08,-156 1891.08,-156 1891.08,-168 1891.08,-168 1891.08,-174 1885.08,-180 1879.08,-180"/>
<text text-anchor="middle" x="1848" y="-159" font-family="sans" font-size="10.00">pick_SNPS_Tm</text>
</g>
<!-- 8&#45;&gt;1 -->
<g id="edge8" class="edge"><title>8&#45;&gt;1</title>
<path fill="none" stroke="grey" stroke-width="2" d="M1839.35,-143.697C1835.36,-135.728 1830.55,-126.1 1826.13,-117.264"/>
<polygon fill="grey" stroke="grey" stroke-width="2" points="1829.15,-115.483 1821.55,-108.104 1822.89,-118.614 1829.15,-115.483"/>
</g>
<!-- 9&#45;&gt;1 -->
<g id="edge9" class="edge"><title>9&#45;&gt;1</title>
<path fill="none" stroke="grey" stroke-width="2" d="M1730.59,-431.645C1740.24,-422.056 1751.23,-409.391 1758,-396 1776.24,-359.9 1777,-347.447 1777,-307 1777,-307 1777,-307 1777,-233 1777,-191.775 1791.43,-145.826 1802.02,-117.662"/>
<polygon fill="grey" stroke="grey" stroke-width="2" points="1805.36,-118.722 1805.71,-108.133 1798.84,-116.192 1805.36,-118.722"/>
</g>
<!-- 9&#45;&gt;3 -->
<g id="edge15" class="edge"><title>9&#45;&gt;3</title>
<path fill="none" stroke="grey" stroke-width="2" d="M1711.49,-431.697C1711.71,-423.983 1711.98,-414.712 1712.23,-406.112"/>
<polygon fill="grey" stroke="grey" stroke-width="2" points="1715.72,-406.2 1712.51,-396.104 1708.73,-406 1715.72,-406.2"/>
</g>
<!-- 9&#45;&gt;5 -->
<g id="edge21" class="edge"><title>9&#45;&gt;5</title>
<path fill="none" stroke="grey" stroke-width="2" d="M1696.97,-431.886C1688.52,-421.54 1677.58,-408.061 1668,-396 1579.74,-284.902 1583.84,-231.311 1472,-144 1447.12,-124.576 1414,-110.649 1388.86,-101.96"/>
<polygon fill="grey" stroke="grey" stroke-width="2" points="1389.91,-98.6184 1379.31,-98.7766 1387.69,-105.259 1389.91,-98.6184"/>
</g>
<!-- 10 -->
<g id="node11" class="node"><title>10</title>
<path fill="none" stroke="#56c1d8" stroke-width="2" d="M633.31,-612C633.31,-612 478.69,-612 478.69,-612 472.69,-612 466.69,-606 466.69,-600 466.69,-600 466.69,-588 466.69,-588 466.69,-582 472.69,-576 478.69,-576 478.69,-576 633.31,-576 633.31,-576 639.31,-576 645.31,-582 645.31,-588 645.31,-588 645.31,-600 645.31,-600 645.31,-606 639.31,-612 633.31,-612"/>
<text text-anchor="middle" x="556" y="-591" font-family="sans" font-size="10.00">remake_panels_with_common_snps</text>
</g>
<!-- 10&#45;&gt;2 -->
<g id="edge10" class="edge"><title>10&#45;&gt;2</title>
<path fill="none" stroke="grey" stroke-width="2" d="M562.195,-575.853C577.525,-531.837 616,-411.004 616,-307 616,-307 616,-307 616,-233 616,-191.705 601.166,-145.774 590.283,-117.634"/>
<polygon fill="grey" stroke="grey" stroke-width="2" points="593.442,-116.106 586.488,-108.113 586.94,-118.698 593.442,-116.106"/>
</g>
<!-- 10&#45;&gt;4 -->
<g id="edge16" class="edge"><title>10&#45;&gt;4</title>
<path fill="none" stroke="grey" stroke-width="2" d="M466.818,-581.281C345.008,-563.345 136.084,-525.051 87,-468 72.2462,-450.851 66.7794,-425.406 64.8384,-406.11"/>
<polygon fill="grey" stroke="grey" stroke-width="2" points="68.3268,-405.824 64.0862,-396.115 61.3465,-406.349 68.3268,-405.824"/>
</g>
<!-- 10&#45;&gt;6 -->
<g id="edge22" class="edge"><title>10&#45;&gt;6</title>
<path fill="none" stroke="grey" stroke-width="2" d="M466.669,-588.586C309.501,-578.36 0,-546.143 0,-451 0,-451 0,-451 0,-377 0,-263.894 103.27,-160.15 155.496,-114.916"/>
<polygon fill="grey" stroke="grey" stroke-width="2" points="158.075,-117.316 163.416,-108.166 153.535,-111.989 158.075,-117.316"/>
</g>
<!-- 12 -->
<g id="node13" class="node"><title>12</title>
<path fill="none" stroke="#d85656" stroke-width="2" d="M160.097,-468C160.097,-468 107.903,-468 107.903,-468 101.903,-468 95.9032,-462 95.9032,-456 95.9032,-456 95.9032,-444 95.9032,-444 95.9032,-438 101.903,-432 107.903,-432 107.903,-432 160.097,-432 160.097,-432 166.097,-432 172.097,-438 172.097,-444 172.097,-444 172.097,-456 172.097,-456 172.097,-462 166.097,-468 160.097,-468"/>
<text text-anchor="middle" x="134" y="-447" font-family="sans" font-size="10.00">test_snp_freq</text>
</g>
<!-- 10&#45;&gt;12 -->
<g id="edge34" class="edge"><title>10&#45;&gt;12</title>
<path fill="none" stroke="grey" stroke-width="2" d="M479.443,-575.986C440.337,-566.62 392.221,-554.054 350,-540 290.127,-520.07 223.248,-491.492 179.993,-472.139"/>
<polygon fill="grey" stroke="grey" stroke-width="2" points="181.421,-468.944 170.866,-468.035 178.551,-475.328 181.421,-468.944"/>
</g>
<!-- 22 -->
<g id="node23" class="node"><title>22</title>
<path fill="none" stroke="#d8d356" stroke-width="2" d="M559.846,-252C559.846,-252 524.154,-252 524.154,-252 518.154,-252 512.154,-246 512.154,-240 512.154,-240 512.154,-228 512.154,-228 512.154,-222 518.154,-216 524.154,-216 524.154,-216 559.846,-216 559.846,-216 565.846,-216 571.846,-222 571.846,-228 571.846,-228 571.846,-240 571.846,-240 571.846,-246 565.846,-252 559.846,-252"/>
<text text-anchor="middle" x="542" y="-231" font-family="sans" font-size="10.00">gwas_Tm</text>
</g>
<!-- 10&#45;&gt;22 -->
<g id="edge51" class="edge"><title>10&#45;&gt;22</title>
<path fill="none" stroke="grey" stroke-width="2" d="M555.881,-575.785C555.476,-529.314 553.77,-397.448 547,-288 546.484,-279.662 545.709,-270.604 544.923,-262.375"/>
<polygon fill="grey" stroke="grey" stroke-width="2" points="548.379,-261.766 543.902,-252.164 541.414,-262.462 548.379,-261.766"/>
</g>
<!-- 24 -->
<g id="node25" class="node"><title>24</title>
<path fill="none" stroke="#56d85b" stroke-width="2" d="M516.322,-540C516.322,-540 441.678,-540 441.678,-540 435.678,-540 429.678,-534 429.678,-528 429.678,-528 429.678,-516 429.678,-516 429.678,-510 435.678,-504 441.678,-504 441.678,-504 516.322,-504 516.322,-504 522.322,-504 528.322,-510 528.322,-516 528.322,-516 528.322,-528 528.322,-528 528.322,-534 522.322,-540 516.322,-540"/>
<text text-anchor="middle" x="479" y="-519" font-family="sans" font-size="10.00">common_snp_freq</text>
</g>
<!-- 10&#45;&gt;24 -->
<g id="edge56" class="edge"><title>10&#45;&gt;24</title>
<path fill="none" stroke="grey" stroke-width="2" d="M536.966,-575.697C527.455,-567.05 515.793,-556.449 505.43,-547.027"/>
<polygon fill="grey" stroke="grey" stroke-width="2" points="507.569,-544.241 497.815,-540.104 502.86,-549.421 507.569,-544.241"/>
</g>
<!-- 26 -->
<g id="node27" class="node"><title>26</title>
<path fill="none" stroke="#61d856" stroke-width="2" d="M363.998,-252C363.998,-252 282.002,-252 282.002,-252 276.002,-252 270.002,-246 270.002,-240 270.002,-240 270.002,-228 270.002,-228 270.002,-222 276.002,-216 282.002,-216 282.002,-216 363.998,-216 363.998,-216 369.998,-216 375.998,-222 375.998,-228 375.998,-228 375.998,-240 375.998,-240 375.998,-246 369.998,-252 363.998,-252"/>
<text text-anchor="middle" x="323" y="-231" font-family="sans" font-size="10.00">gwas_no_correction</text>
</g>
<!-- 10&#45;&gt;26 -->
<g id="edge60" class="edge"><title>10&#45;&gt;26</title>
<path fill="none" stroke="grey" stroke-width="2" d="M502.513,-575.944C472.458,-566.053 434.388,-553.011 401,-540 363.914,-525.548 355.87,-518.993 319,-504 276.789,-486.835 248.955,-505.454 223,-468 175.24,-399.083 253.916,-303.727 297.317,-259.431"/>
<polygon fill="grey" stroke="grey" stroke-width="2" points="299.876,-261.822 304.464,-252.271 294.922,-256.876 299.876,-261.822"/>
</g>
<!-- 34 -->
<g id="node35" class="node"><title>34</title>
<path fill="none" stroke="#ced856" stroke-width="2" d="M722.855,-396C722.855,-396 667.145,-396 667.145,-396 661.145,-396 655.145,-390 655.145,-384 655.145,-384 655.145,-372 655.145,-372 655.145,-366 661.145,-360 667.145,-360 667.145,-360 722.855,-360 722.855,-360 728.855,-360 734.855,-366 734.855,-372 734.855,-372 734.855,-384 734.855,-384 734.855,-390 728.855,-396 722.855,-396"/>
<text text-anchor="middle" x="695" y="-375" font-family="sans" font-size="10.00">format_covars</text>
</g>
<!-- 10&#45;&gt;34 -->
<g id="edge75" class="edge"><title>10&#45;&gt;34</title>
<path fill="none" stroke="grey" stroke-width="2" d="M575.149,-575.99C585.609,-566.113 598.357,-553.07 608,-540 625.215,-516.667 662.111,-444.757 681.87,-405.404"/>
<polygon fill="grey" stroke="grey" stroke-width="2" points="685.156,-406.659 686.502,-396.15 678.896,-403.526 685.156,-406.659"/>
</g>
<!-- 40 -->
<g id="node41" class="node"><title>40</title>
<path fill="none" stroke="#56d882" stroke-width="2" d="M461.753,-396C461.753,-396 358.247,-396 358.247,-396 352.247,-396 346.247,-390 346.247,-384 346.247,-384 346.247,-372 346.247,-372 346.247,-366 352.247,-360 358.247,-360 358.247,-360 461.753,-360 461.753,-360 467.753,-360 473.753,-366 473.753,-372 473.753,-372 473.753,-384 473.753,-384 473.753,-390 467.753,-396 461.753,-396"/>
<text text-anchor="middle" x="410" y="-375" font-family="sans" font-size="10.00">generate_genetic_values</text>
</g>
<!-- 10&#45;&gt;40 -->
<g id="edge85" class="edge"><title>10&#45;&gt;40</title>
<path fill="none" stroke="grey" stroke-width="2" d="M470.595,-575.91C451.442,-568.076 433.205,-556.653 421,-540 392.183,-500.68 397.458,-440.433 403.793,-405.871"/>
<polygon fill="grey" stroke="grey" stroke-width="2" points="407.234,-406.512 405.757,-396.021 400.369,-405.144 407.234,-406.512"/>
</g>
<!-- 47 -->
<g id="node48" class="node"><title>47</title>
<path fill="none" stroke="#56d892" stroke-width="2" d="M742.385,-540C742.385,-540 671.615,-540 671.615,-540 665.615,-540 659.615,-534 659.615,-528 659.615,-528 659.615,-516 659.615,-516 659.615,-510 665.615,-504 671.615,-504 671.615,-504 742.385,-504 742.385,-504 748.385,-504 754.385,-510 754.385,-516 754.385,-516 754.385,-528 754.385,-528 754.385,-534 748.385,-540 742.385,-540"/>
<text text-anchor="middle" x="707" y="-519" font-family="sans" font-size="10.00">convert_to_plink1</text>
</g>
<!-- 10&#45;&gt;47 -->
<g id="edge105" class="edge"><title>10&#45;&gt;47</title>
<path fill="none" stroke="grey" stroke-width="2" d="M592.939,-575.876C613.49,-566.349 639.251,-554.407 661.089,-544.283"/>
<polygon fill="grey" stroke="grey" stroke-width="2" points="662.581,-547.45 670.181,-540.068 659.637,-541.099 662.581,-547.45"/>
</g>
<!-- 48 -->
<g id="node49" class="node"><title>48</title>
<path fill="none" stroke="#56d8c9" stroke-width="2" d="M855.426,-540C855.426,-540 784.574,-540 784.574,-540 778.574,-540 772.574,-534 772.574,-528 772.574,-528 772.574,-516 772.574,-516 772.574,-510 778.574,-504 784.574,-504 784.574,-504 855.426,-504 855.426,-504 861.426,-504 867.426,-510 867.426,-516 867.426,-516 867.426,-528 867.426,-528 867.426,-534 861.426,-540 855.426,-540"/>
<text text-anchor="middle" x="820" y="-519" font-family="sans" font-size="10.00">make_test_vector</text>
</g>
<!-- 10&#45;&gt;48 -->
<g id="edge107" class="edge"><title>10&#45;&gt;48</title>
<path fill="none" stroke="grey" stroke-width="2" d="M625.653,-575.889C663.457,-566.433 711.22,-554.214 762.498,-540.087"/>
<polygon fill="grey" stroke="grey" stroke-width="2" points="763.75,-543.372 772.454,-537.332 761.883,-536.626 763.75,-543.372"/>
</g>
<!-- 11 -->
<g id="node12" class="node"><title>11</title>
<path fill="none" stroke="#566bd8" stroke-width="2" d="M573.077,-180C573.077,-180 510.923,-180 510.923,-180 504.923,-180 498.923,-174 498.923,-168 498.923,-168 498.923,-156 498.923,-156 498.923,-150 504.923,-144 510.923,-144 510.923,-144 573.077,-144 573.077,-144 579.077,-144 585.077,-150 585.077,-156 585.077,-156 585.077,-168 585.077,-168 585.077,-174 579.077,-180 573.077,-180"/>
<text text-anchor="middle" x="542" y="-159" font-family="sans" font-size="10.00">pick_SNPS_Tm</text>
</g>
<!-- 11&#45;&gt;2 -->
<g id="edge11" class="edge"><title>11&#45;&gt;2</title>
<path fill="none" stroke="grey" stroke-width="2" d="M551.146,-143.697C555.403,-135.644 560.556,-125.894 565.266,-116.982"/>
<polygon fill="grey" stroke="grey" stroke-width="2" points="568.38,-118.581 569.959,-108.104 562.192,-115.31 568.38,-118.581"/>
</g>
<!-- 12&#45;&gt;2 -->
<g id="edge12" class="edge"><title>12&#45;&gt;2</title>
<path fill="none" stroke="grey" stroke-width="2" d="M140.476,-431.793C149.826,-405.361 166,-352.993 166,-307 166,-307 166,-307 166,-233 166,-190.656 166.874,-170.375 200,-144 250.434,-103.845 442.204,-94.1129 532.041,-91.7544"/>
<polygon fill="grey" stroke="grey" stroke-width="2" points="532.305,-95.2491 542.217,-91.5075 532.135,-88.2512 532.305,-95.2491"/>
</g>
<!-- 12&#45;&gt;4 -->
<g id="edge18" class="edge"><title>12&#45;&gt;4</title>
<path fill="none" stroke="grey" stroke-width="2" d="M116.697,-431.697C108.135,-423.135 97.6562,-412.656 88.3045,-403.304"/>
<polygon fill="grey" stroke="grey" stroke-width="2" points="90.6503,-400.701 81.1043,-396.104 85.7005,-405.65 90.6503,-400.701"/>
</g>
<!-- 12&#45;&gt;6 -->
<g id="edge24" class="edge"><title>12&#45;&gt;6</title>
<path fill="none" stroke="grey" stroke-width="2" d="M132.815,-431.961C131.066,-405.315 128,-352.155 128,-307 128,-307 128,-307 128,-233 128,-192.031 135.664,-181.571 152,-144 155.999,-134.802 161.419,-125.329 166.709,-116.982"/>
<polygon fill="grey" stroke="grey" stroke-width="2" points="169.761,-118.711 172.326,-108.432 163.91,-114.868 169.761,-118.711"/>
</g>
<!-- 13 -->
<g id="node14" class="node"><title>13</title>
<path fill="none" stroke="#d8ac56" stroke-width="2" d="M1642.86,-468C1642.86,-468 1571.14,-468 1571.14,-468 1565.14,-468 1559.14,-462 1559.14,-456 1559.14,-456 1559.14,-444 1559.14,-444 1559.14,-438 1565.14,-432 1571.14,-432 1571.14,-432 1642.86,-432 1642.86,-432 1648.86,-432 1654.86,-438 1654.86,-444 1654.86,-444 1654.86,-456 1654.86,-456 1654.86,-462 1648.86,-468 1642.86,-468"/>
<text text-anchor="middle" x="1607" y="-447" font-family="sans" font-size="10.00">draw_effect_sizes</text>
</g>
<!-- 13&#45;&gt;3 -->
<g id="edge14" class="edge"><title>13&#45;&gt;3</title>
<path fill="none" stroke="grey" stroke-width="2" d="M1632.93,-431.876C1646.66,-422.808 1663.71,-411.552 1678.54,-401.759"/>
<polygon fill="grey" stroke="grey" stroke-width="2" points="1680.55,-404.621 1686.97,-396.19 1676.7,-398.78 1680.55,-404.621"/>
</g>
<!-- 13&#45;&gt;8 -->
<g id="edge27" class="edge"><title>13&#45;&gt;8</title>
<path fill="none" stroke="grey" stroke-width="2" d="M1617.79,-431.768C1629.48,-413.462 1649.02,-383.922 1668,-360 1719.88,-294.601 1787.9,-223.67 1823.64,-187.393"/>
<polygon fill="grey" stroke="grey" stroke-width="2" points="1826.22,-189.765 1830.76,-180.193 1821.24,-184.843 1826.22,-189.765"/>
</g>
<!-- 15 -->
<g id="node16" class="node"><title>15</title>
<path fill="none" stroke="#56d873" stroke-width="2" d="M1451.08,-180C1451.08,-180 1408.92,-180 1408.92,-180 1402.92,-180 1396.92,-174 1396.92,-168 1396.92,-168 1396.92,-156 1396.92,-156 1396.92,-150 1402.92,-144 1408.92,-144 1408.92,-144 1451.08,-144 1451.08,-144 1457.08,-144 1463.08,-150 1463.08,-156 1463.08,-156 1463.08,-168 1463.08,-168 1463.08,-174 1457.08,-180 1451.08,-180"/>
<text text-anchor="middle" x="1430" y="-159" font-family="sans" font-size="10.00">pick_SNPS</text>
</g>
<!-- 13&#45;&gt;15 -->
<g id="edge37" class="edge"><title>13&#45;&gt;15</title>
<path fill="none" stroke="grey" stroke-width="2" d="M1601.84,-431.793C1588.87,-390.718 1551.62,-285.212 1492,-216 1482.87,-205.398 1471.55,-195.084 1461.09,-186.416"/>
<polygon fill="grey" stroke="grey" stroke-width="2" points="1463.29,-183.693 1453.31,-180.13 1458.89,-189.138 1463.29,-183.693"/>
</g>
<!-- 13&#45;&gt;37 -->
<g id="edge81" class="edge"><title>13&#45;&gt;37</title>
<path fill="none" stroke="grey" stroke-width="2" d="M1566.88,-431.876C1544.36,-422.264 1516.08,-410.193 1492.23,-400.013"/>
<polygon fill="grey" stroke="grey" stroke-width="2" points="1493.56,-396.775 1482.99,-396.068 1490.81,-403.213 1493.56,-396.775"/>
</g>
<!-- 14 -->
<g id="node15" class="node"><title>14</title>
<path fill="none" stroke="#d8ac56" stroke-width="2" d="M315.863,-468C315.863,-468 244.137,-468 244.137,-468 238.137,-468 232.137,-462 232.137,-456 232.137,-456 232.137,-444 232.137,-444 232.137,-438 238.137,-432 244.137,-432 244.137,-432 315.863,-432 315.863,-432 321.863,-432 327.863,-438 327.863,-444 327.863,-444 327.863,-456 327.863,-456 327.863,-462 321.863,-468 315.863,-468"/>
<text text-anchor="middle" x="280" y="-447" font-family="sans" font-size="10.00">draw_effect_sizes</text>
</g>
<!-- 14&#45;&gt;4 -->
<g id="edge17" class="edge"><title>14&#45;&gt;4</title>
<path fill="none" stroke="grey" stroke-width="2" d="M232.063,-433.465C195.708,-421.683 146.041,-405.587 110.137,-393.952"/>
<polygon fill="grey" stroke="grey" stroke-width="2" points="110.989,-390.549 100.397,-390.795 108.831,-397.208 110.989,-390.549"/>
</g>
<!-- 14&#45;&gt;11 -->
<g id="edge32" class="edge"><title>14&#45;&gt;11</title>
<path fill="none" stroke="grey" stroke-width="2" d="M278.171,-431.957C275.706,-400.198 274.912,-331.271 308,-288 330.947,-257.99 351.431,-269.328 385,-252 426.558,-230.548 473.028,-203.855 504.555,-185.325"/>
<polygon fill="grey" stroke="grey" stroke-width="2" points="506.598,-188.183 513.435,-180.089 503.043,-182.153 506.598,-188.183"/>
</g>
<!-- 16 -->
<g id="node17" class="node"><title>16</title>
<path fill="none" stroke="#56d873" stroke-width="2" d="M263.078,-180C263.078,-180 220.922,-180 220.922,-180 214.922,-180 208.922,-174 208.922,-168 208.922,-168 208.922,-156 208.922,-156 208.922,-150 214.922,-144 220.922,-144 220.922,-144 263.078,-144 263.078,-144 269.078,-144 275.078,-150 275.078,-156 275.078,-156 275.078,-168 275.078,-168 275.078,-174 269.078,-180 263.078,-180"/>
<text text-anchor="middle" x="242" y="-159" font-family="sans" font-size="10.00">pick_SNPS</text>
</g>
<!-- 14&#45;&gt;16 -->
<g id="edge39" class="edge"><title>14&#45;&gt;16</title>
<path fill="none" stroke="grey" stroke-width="2" d="M274.778,-431.966C271.796,-421.648 268.22,-408.171 266,-396 252.544,-322.241 246.021,-233.867 243.425,-190.19"/>
<polygon fill="grey" stroke="grey" stroke-width="2" points="246.912,-189.869 242.847,-180.085 239.924,-190.268 246.912,-189.869"/>
</g>
<!-- 14&#45;&gt;40 -->
<g id="edge86" class="edge"><title>14&#45;&gt;40</title>
<path fill="none" stroke="grey" stroke-width="2" d="M311.802,-431.876C329.114,-422.554 350.721,-410.919 369.256,-400.939"/>
<polygon fill="grey" stroke="grey" stroke-width="2" points="370.931,-404.012 378.076,-396.19 367.612,-397.849 370.931,-404.012"/>
</g>
<!-- 15&#45;&gt;5 -->
<g id="edge20" class="edge"><title>15&#45;&gt;5</title>
<path fill="none" stroke="grey" stroke-width="2" d="M1410.72,-143.697C1401.08,-135.05 1389.27,-124.449 1378.77,-115.027"/>
<polygon fill="grey" stroke="grey" stroke-width="2" points="1380.84,-112.179 1371.06,-108.104 1376.16,-117.388 1380.84,-112.179"/>
</g>
<!-- 16&#45;&gt;6 -->
<g id="edge23" class="edge"><title>16&#45;&gt;6</title>
<path fill="none" stroke="grey" stroke-width="2" d="M227.91,-143.697C221.077,-135.305 212.743,-125.07 205.244,-115.861"/>
<polygon fill="grey" stroke="grey" stroke-width="2" points="207.956,-113.649 198.928,-108.104 202.528,-118.069 207.956,-113.649"/>
</g>
<!-- 17 -->
<g id="node18" class="node"><title>17</title>
<path fill="none" stroke="#568ad8" stroke-width="2" d="M1306.78,-684C1306.78,-684 1217.22,-684 1217.22,-684 1211.22,-684 1205.22,-678 1205.22,-672 1205.22,-672 1205.22,-660 1205.22,-660 1205.22,-654 1211.22,-648 1217.22,-648 1217.22,-648 1306.78,-648 1306.78,-648 1312.78,-648 1318.78,-654 1318.78,-660 1318.78,-660 1318.78,-672 1318.78,-672 1318.78,-678 1312.78,-684 1306.78,-684"/>
<text text-anchor="middle" x="1262" y="-663" font-family="sans" font-size="10.00">get_common_snp_list</text>
</g>
<!-- 17&#45;&gt;7 -->
<g id="edge25" class="edge"><title>17&#45;&gt;7</title>
<path fill="none" stroke="grey" stroke-width="2" d="M1319.03,-654.062C1374.81,-643.364 1460.91,-626.853 1527.9,-614.005"/>
<polygon fill="grey" stroke="grey" stroke-width="2" points="1528.9,-617.378 1538.06,-612.057 1527.58,-610.503 1528.9,-617.378"/>
</g>
<!-- 18 -->
<g id="node19" class="node"><title>18</title>
<path fill="none" stroke="#567bd8" stroke-width="2" d="M1235.05,-828C1235.05,-828 1152.95,-828 1152.95,-828 1146.95,-828 1140.95,-822 1140.95,-816 1140.95,-816 1140.95,-804 1140.95,-804 1140.95,-798 1146.95,-792 1152.95,-792 1152.95,-792 1235.05,-792 1235.05,-792 1241.05,-792 1247.05,-798 1247.05,-804 1247.05,-804 1247.05,-816 1247.05,-816 1247.05,-822 1241.05,-828 1235.05,-828"/>
<text text-anchor="middle" x="1194" y="-812" font-family="sans" font-size="10.00">split_into_test_gwas</text>
<text text-anchor="middle" x="1194" y="-802" font-family="sans" font-size="10.00">config: C1</text>
</g>
<!-- 18&#45;&gt;7 -->
<g id="edge26" class="edge"><title>18&#45;&gt;7</title>
<path fill="none" stroke="grey" stroke-width="2" d="M1228.7,-791.849C1307.02,-753.14 1497.37,-659.066 1583.45,-616.524"/>
<polygon fill="grey" stroke="grey" stroke-width="2" points="1585.02,-619.652 1592.43,-612.084 1581.92,-613.377 1585.02,-619.652"/>
</g>
<!-- 27 -->
<g id="node28" class="node"><title>27</title>
<path fill="none" stroke="#56a2d8" stroke-width="2" d="M1275.27,-756C1275.27,-756 1210.73,-756 1210.73,-756 1204.73,-756 1198.73,-750 1198.73,-744 1198.73,-744 1198.73,-732 1198.73,-732 1198.73,-726 1204.73,-720 1210.73,-720 1210.73,-720 1275.27,-720 1275.27,-720 1281.27,-720 1287.27,-726 1287.27,-732 1287.27,-732 1287.27,-744 1287.27,-744 1287.27,-750 1281.27,-756 1275.27,-756"/>
<text text-anchor="middle" x="1243" y="-735" font-family="sans" font-size="10.00">get_variant_freq</text>
</g>
<!-- 18&#45;&gt;27 -->
<g id="edge63" class="edge"><title>18&#45;&gt;27</title>
<path fill="none" stroke="grey" stroke-width="2" d="M1206.11,-791.697C1211.87,-783.474 1218.86,-773.483 1225.21,-764.421"/>
<polygon fill="grey" stroke="grey" stroke-width="2" points="1228.16,-766.304 1231.03,-756.104 1222.42,-762.29 1228.16,-766.304"/>
</g>
<!-- 44 -->
<g id="node45" class="node"><title>44</title>
<path fill="none" stroke="#d87d56" stroke-width="2" d="M1091.25,-468C1091.25,-468 1002.75,-468 1002.75,-468 996.752,-468 990.752,-462 990.752,-456 990.752,-456 990.752,-444 990.752,-444 990.752,-438 996.752,-432 1002.75,-432 1002.75,-432 1091.25,-432 1091.25,-432 1097.25,-432 1103.25,-438 1103.25,-444 1103.25,-444 1103.25,-456 1103.25,-456 1103.25,-462 1097.25,-468 1091.25,-468"/>
<text text-anchor="middle" x="1047" y="-447" font-family="sans" font-size="10.00">aggregate_genotypes</text>
</g>
<!-- 18&#45;&gt;44 -->
<g id="edge99" class="edge"><title>18&#45;&gt;44</title>
<path fill="none" stroke="grey" stroke-width="2" d="M1189.53,-791.819C1176.81,-744.337 1137.84,-607.971 1084,-504 1079.17,-494.681 1072.94,-485.098 1066.96,-476.688"/>
<polygon fill="grey" stroke="grey" stroke-width="2" points="1069.63,-474.41 1060.9,-468.407 1063.99,-478.544 1069.63,-474.41"/>
</g>
<!-- 19&#45;&gt;8 -->
<g id="edge28" class="edge"><title>19&#45;&gt;8</title>
<path fill="none" stroke="grey" stroke-width="2" d="M1848,-215.697C1848,-207.983 1848,-198.712 1848,-190.112"/>
<polygon fill="grey" stroke="grey" stroke-width="2" points="1851.5,-190.104 1848,-180.104 1844.5,-190.104 1851.5,-190.104"/>
</g>
<!-- 20 -->
<g id="node21" class="node"><title>20</title>
<path fill="none" stroke="#568ad8" stroke-width="2" d="M892.776,-684C892.776,-684 803.224,-684 803.224,-684 797.224,-684 791.224,-678 791.224,-672 791.224,-672 791.224,-660 791.224,-660 791.224,-654 797.224,-648 803.224,-648 803.224,-648 892.776,-648 892.776,-648 898.776,-648 904.776,-654 904.776,-660 904.776,-660 904.776,-672 904.776,-672 904.776,-678 898.776,-684 892.776,-684"/>
<text text-anchor="middle" x="848" y="-663" font-family="sans" font-size="10.00">get_common_snp_list</text>
</g>
<!-- 20&#45;&gt;10 -->
<g id="edge30" class="edge"><title>20&#45;&gt;10</title>
<path fill="none" stroke="grey" stroke-width="2" d="M791.353,-651.42C747.443,-640.894 686.012,-626.167 636.921,-614.399"/>
<polygon fill="grey" stroke="grey" stroke-width="2" points="637.501,-610.939 626.961,-612.011 635.869,-617.746 637.501,-610.939"/>
</g>
<!-- 21 -->
<g id="node22" class="node"><title>21</title>
<path fill="none" stroke="#567bd8" stroke-width="2" d="M1111.05,-828C1111.05,-828 1028.95,-828 1028.95,-828 1022.95,-828 1016.95,-822 1016.95,-816 1016.95,-816 1016.95,-804 1016.95,-804 1016.95,-798 1022.95,-792 1028.95,-792 1028.95,-792 1111.05,-792 1111.05,-792 1117.05,-792 1123.05,-798 1123.05,-804 1123.05,-804 1123.05,-816 1123.05,-816 1123.05,-822 1117.05,-828 1111.05,-828"/>
<text text-anchor="middle" x="1070" y="-812" font-family="sans" font-size="10.00">split_into_test_gwas</text>
<text text-anchor="middle" x="1070" y="-802" font-family="sans" font-size="10.00">config: C2</text>
</g>
<!-- 21&#45;&gt;10 -->
<g id="edge31" class="edge"><title>21&#45;&gt;10</title>
<path fill="none" stroke="grey" stroke-width="2" d="M1028.81,-791.849C935.456,-752.984 708.046,-658.303 606.462,-616.009"/>
<polygon fill="grey" stroke="grey" stroke-width="2" points="607.61,-612.696 597.033,-612.084 604.919,-619.158 607.61,-612.696"/>
</g>
<!-- 32 -->
<g id="node33" class="node"><title>32</title>
<path fill="none" stroke="#56a2d8" stroke-width="2" d="M1093.27,-756C1093.27,-756 1028.73,-756 1028.73,-756 1022.73,-756 1016.73,-750 1016.73,-744 1016.73,-744 1016.73,-732 1016.73,-732 1016.73,-726 1022.73,-720 1028.73,-720 1028.73,-720 1093.27,-720 1093.27,-720 1099.27,-720 1105.27,-726 1105.27,-732 1105.27,-732 1105.27,-744 1105.27,-744 1105.27,-750 1099.27,-756 1093.27,-756"/>
<text text-anchor="middle" x="1061" y="-735" font-family="sans" font-size="10.00">get_variant_freq</text>
</g>
<!-- 21&#45;&gt;32 -->
<g id="edge71" class="edge"><title>21&#45;&gt;32</title>
<path fill="none" stroke="grey" stroke-width="2" d="M1067.78,-791.697C1066.78,-783.983 1065.59,-774.712 1064.49,-766.112"/>
<polygon fill="grey" stroke="grey" stroke-width="2" points="1067.95,-765.576 1063.2,-756.104 1061,-766.469 1067.95,-765.576"/>
</g>
<!-- 21&#45;&gt;44 -->
<g id="edge100" class="edge"><title>21&#45;&gt;44</title>
<path fill="none" stroke="grey" stroke-width="2" d="M1089.47,-791.918C1098.82,-782.403 1109.05,-769.723 1114,-756 1119.43,-740.951 1115.78,-735.901 1114,-720 1108.52,-671.086 1078.38,-551.367 1065,-504 1062.56,-495.357 1059.53,-486.047 1056.67,-477.677"/>
<polygon fill="grey" stroke="grey" stroke-width="2" points="1059.9,-476.326 1053.29,-468.044 1053.29,-478.638 1059.9,-476.326"/>
</g>
<!-- 22&#45;&gt;11 -->
<g id="edge33" class="edge"><title>22&#45;&gt;11</title>
<path fill="none" stroke="grey" stroke-width="2" d="M542,-215.697C542,-207.983 542,-198.712 542,-190.112"/>
<polygon fill="grey" stroke="grey" stroke-width="2" points="545.5,-190.104 542,-180.104 538.5,-190.104 545.5,-190.104"/>
</g>
<!-- 23&#45;&gt;13 -->
<g id="edge35" class="edge"><title>23&#45;&gt;13</title>
<path fill="none" stroke="grey" stroke-width="2" d="M1564.09,-503.697C1570.92,-495.305 1579.26,-485.07 1586.76,-475.861"/>
<polygon fill="grey" stroke="grey" stroke-width="2" points="1589.47,-478.069 1593.07,-468.104 1584.04,-473.649 1589.47,-478.069"/>
</g>
<!-- 23&#45;&gt;19 -->
<g id="edge45" class="edge"><title>23&#45;&gt;19</title>
<path fill="none" stroke="grey" stroke-width="2" d="M1599.39,-505.286C1600.95,-504.845 1602.48,-504.415 1604,-504 1671.79,-485.433 1703.58,-512.489 1758,-468 1791.12,-440.926 1826.64,-317.204 1841.19,-261.875"/>
<polygon fill="grey" stroke="grey" stroke-width="2" points="1844.61,-262.633 1843.74,-252.074 1837.84,-260.873 1844.61,-262.633"/>
</g>
<!-- 23&#45;&gt;25 -->
<g id="edge58" class="edge"><title>23&#45;&gt;25</title>
<path fill="none" stroke="grey" stroke-width="2" d="M1549.36,-503.932C1547.28,-456.405 1539.47,-323.693 1516,-288 1507.62,-275.26 1495.02,-265.061 1482.02,-257.146"/>
<polygon fill="grey" stroke="grey" stroke-width="2" points="1483.43,-253.923 1473.01,-252.028 1479.98,-260.01 1483.43,-253.923"/>
</g>
<!-- 23&#45;&gt;44 -->
<g id="edge91" class="edge"><title>23&#45;&gt;44</title>
<path fill="none" stroke="grey" stroke-width="2" d="M1500.39,-514.097C1409.46,-501.441 1216.03,-474.523 1113.69,-460.281"/>
<polygon fill="grey" stroke="grey" stroke-width="2" points="1113.87,-456.772 1103.48,-458.86 1112.9,-463.705 1113.87,-456.772"/>
</g>
<!-- 24&#45;&gt;14 -->
<g id="edge36" class="edge"><title>24&#45;&gt;14</title>
<path fill="none" stroke="grey" stroke-width="2" d="M430.574,-503.966C402.562,-494.112 367.141,-481.653 337.693,-471.294"/>
<polygon fill="grey" stroke="grey" stroke-width="2" points="338.549,-467.885 327.954,-467.868 336.226,-474.488 338.549,-467.885"/>
</g>
<!-- 24&#45;&gt;22 -->
<g id="edge52" class="edge"><title>24&#45;&gt;22</title>
<path fill="none" stroke="grey" stroke-width="2" d="M484.854,-503.794C492.822,-479.862 507.104,-435.059 516,-396 526.621,-349.371 534.545,-294.186 538.707,-262.033"/>
<polygon fill="grey" stroke="grey" stroke-width="2" points="542.186,-262.419 539.973,-252.058 535.242,-261.538 542.186,-262.419"/>
</g>
<!-- 24&#45;&gt;26 -->
<g id="edge61" class="edge"><title>24&#45;&gt;26</title>
<path fill="none" stroke="grey" stroke-width="2" d="M481.653,-503.743C488.646,-455.717 505.361,-321.819 480,-288 458.18,-258.903 419.623,-245.619 386.181,-239.626"/>
<polygon fill="grey" stroke="grey" stroke-width="2" points="386.419,-236.12 375.991,-237.991 385.31,-243.031 386.419,-236.12"/>
</g>
<!-- 24&#45;&gt;44 -->
<g id="edge92" class="edge"><title>24&#45;&gt;44</title>
<path fill="none" stroke="grey" stroke-width="2" d="M528.413,-514.91C630.591,-502.318 865.188,-473.406 980.519,-459.193"/>
<polygon fill="grey" stroke="grey" stroke-width="2" points="981.132,-462.644 990.629,-457.947 980.276,-455.697 981.132,-462.644"/>
</g>
<!-- 25&#45;&gt;15 -->
<g id="edge38" class="edge"><title>25&#45;&gt;15</title>
<path fill="none" stroke="grey" stroke-width="2" d="M1430,-215.697C1430,-207.983 1430,-198.712 1430,-190.112"/>
<polygon fill="grey" stroke="grey" stroke-width="2" points="1433.5,-190.104 1430,-180.104 1426.5,-190.104 1433.5,-190.104"/>
</g>
<!-- 26&#45;&gt;16 -->
<g id="edge40" class="edge"><title>26&#45;&gt;16</title>
<path fill="none" stroke="grey" stroke-width="2" d="M302.978,-215.697C292.874,-206.965 280.464,-196.24 269.482,-186.75"/>
<polygon fill="grey" stroke="grey" stroke-width="2" points="271.647,-183.995 261.792,-180.104 267.07,-189.291 271.647,-183.995"/>
</g>
<!-- 27&#45;&gt;17 -->
<g id="edge41" class="edge"><title>27&#45;&gt;17</title>
<path fill="none" stroke="grey" stroke-width="2" d="M1247.7,-719.697C1249.81,-711.898 1252.36,-702.509 1254.72,-693.829"/>
<polygon fill="grey" stroke="grey" stroke-width="2" points="1258.12,-694.672 1257.36,-684.104 1251.36,-692.838 1258.12,-694.672"/>
</g>
<!-- 27&#45;&gt;44 -->
<g id="edge96" class="edge"><title>27&#45;&gt;44</title>
<path fill="none" stroke="grey" stroke-width="2" d="M1224.45,-719.807C1214.86,-710.074 1203.59,-697.226 1196,-684 1154.09,-610.986 1189.78,-569.586 1137,-504 1126.83,-491.369 1112.79,-481.096 1098.82,-473.074"/>
<polygon fill="grey" stroke="grey" stroke-width="2" points="1100.15,-469.814 1089.69,-468.126 1096.81,-475.968 1100.15,-469.814"/>
</g>
<!-- 28 -->
<g id="node29" class="node"><title>28</title>
<path fill="none" stroke="#56d8b9" stroke-width="2" d="M1219.69,-900C1219.69,-900 1116.31,-900 1116.31,-900 1110.31,-900 1104.31,-894 1104.31,-888 1104.31,-888 1104.31,-876 1104.31,-876 1104.31,-870 1110.31,-864 1116.31,-864 1116.31,-864 1219.69,-864 1219.69,-864 1225.69,-864 1231.69,-870 1231.69,-876 1231.69,-876 1231.69,-888 1231.69,-888 1231.69,-894 1225.69,-900 1219.69,-900"/>
<text text-anchor="middle" x="1168" y="-884" font-family="sans" font-size="10.00">create_panels_4PopSplit</text>
<text text-anchor="middle" x="1168" y="-874" font-family="sans" font-size="10.00">model: 4PopSplit</text>
</g>
<!-- 28&#45;&gt;18 -->
<g id="edge42" class="edge"><title>28&#45;&gt;18</title>
<path fill="none" stroke="grey" stroke-width="2" d="M1174.43,-863.697C1177.36,-855.813 1180.89,-846.304 1184.14,-837.546"/>
<polygon fill="grey" stroke="grey" stroke-width="2" points="1187.45,-838.697 1187.65,-828.104 1180.88,-836.26 1187.45,-838.697"/>
</g>
<!-- 28&#45;&gt;21 -->
<g id="edge49" class="edge"><title>28&#45;&gt;21</title>
<path fill="none" stroke="grey" stroke-width="2" d="M1144.03,-863.876C1131.45,-854.893 1115.87,-843.763 1102.25,-834.034"/>
<polygon fill="grey" stroke="grey" stroke-width="2" points="1104.24,-831.154 1094.07,-828.19 1100.17,-836.85 1104.24,-831.154"/>
</g>
<!-- 29 -->
<g id="node30" class="node"><title>29</title>
<path fill="none" stroke="#56d8a9" stroke-width="2" d="M1074.66,-900C1074.66,-900 991.338,-900 991.338,-900 985.338,-900 979.338,-894 979.338,-888 979.338,-888 979.338,-876 979.338,-876 979.338,-870 985.338,-864 991.338,-864 991.338,-864 1074.66,-864 1074.66,-864 1080.66,-864 1086.66,-870 1086.66,-876 1086.66,-876 1086.66,-888 1086.66,-888 1086.66,-894 1080.66,-900 1074.66,-900"/>
<text text-anchor="middle" x="1033" y="-879" font-family="sans" font-size="10.00">convert_vcf_to_plink</text>
</g>
<!-- 29&#45;&gt;18 -->
<g id="edge43" class="edge"><title>29&#45;&gt;18</title>
<path fill="none" stroke="grey" stroke-width="2" d="M1072.39,-863.876C1094.39,-854.307 1122.01,-842.3 1145.36,-832.148"/>
<polygon fill="grey" stroke="grey" stroke-width="2" points="1146.97,-835.265 1154.74,-828.068 1144.18,-828.846 1146.97,-835.265"/>
</g>
<!-- 29&#45;&gt;21 -->
<g id="edge50" class="edge"><title>29&#45;&gt;21</title>
<path fill="none" stroke="grey" stroke-width="2" d="M1042.15,-863.697C1046.4,-855.644 1051.56,-845.894 1056.27,-836.982"/>
<polygon fill="grey" stroke="grey" stroke-width="2" points="1059.38,-838.581 1060.96,-828.104 1053.19,-835.31 1059.38,-838.581"/>
</g>
<!-- 29&#45;&gt;44 -->
<g id="edge101" class="edge"><title>29&#45;&gt;44</title>
<path fill="none" stroke="grey" stroke-width="2" d="M1022.37,-863.556C1016.9,-853.543 1010.8,-840.509 1008,-828 979.106,-699.017 1019.57,-540.326 1038.34,-477.968"/>
<polygon fill="grey" stroke="grey" stroke-width="2" points="1041.76,-478.725 1041.36,-468.138 1035.07,-476.668 1041.76,-478.725"/>
</g>
<!-- 30 -->
<g id="node31" class="node"><title>30</title>
<path fill="none" stroke="#b6d856" stroke-width="2" d="M1494.88,-324C1494.88,-324 1365.12,-324 1365.12,-324 1359.12,-324 1353.12,-318 1353.12,-312 1353.12,-312 1353.12,-300 1353.12,-300 1353.12,-294 1359.12,-288 1365.12,-288 1365.12,-288 1494.88,-288 1494.88,-288 1500.88,-288 1506.88,-294 1506.88,-300 1506.88,-300 1506.88,-312 1506.88,-312 1506.88,-318 1500.88,-324 1494.88,-324"/>
<text text-anchor="middle" x="1430" y="-303" font-family="sans" font-size="10.00">simulate_phenotype_4PopSplit</text>
</g>
<!-- 30&#45;&gt;19 -->
<g id="edge46" class="edge"><title>30&#45;&gt;19</title>
<path fill="none" stroke="grey" stroke-width="2" d="M1507.15,-292.079C1596.23,-277.162 1739.32,-253.2 1808.29,-241.65"/>
<polygon fill="grey" stroke="grey" stroke-width="2" points="1809.03,-245.075 1818.31,-239.972 1807.87,-238.171 1809.03,-245.075"/>
</g>
<!-- 30&#45;&gt;25 -->
<g id="edge59" class="edge"><title>30&#45;&gt;25</title>
<path fill="none" stroke="grey" stroke-width="2" d="M1430,-287.697C1430,-279.983 1430,-270.712 1430,-262.112"/>
<polygon fill="grey" stroke="grey" stroke-width="2" points="1433.5,-262.104 1430,-252.104 1426.5,-262.104 1433.5,-262.104"/>
</g>
<!-- 31&#45;&gt;19 -->
<g id="edge47" class="edge"><title>31&#45;&gt;19</title>
<path fill="none" stroke="grey" stroke-width="2" d="M1923.63,-359.871C1908.71,-335.244 1881.09,-289.638 1863.68,-260.885"/>
<polygon fill="grey" stroke="grey" stroke-width="2" points="1866.58,-258.93 1858.41,-252.189 1860.6,-262.556 1866.58,-258.93"/>
</g>
<!-- 32&#45;&gt;20 -->
<g id="edge48" class="edge"><title>32&#45;&gt;20</title>
<path fill="none" stroke="grey" stroke-width="2" d="M1016.61,-722.411C985.647,-712.236 943.923,-698.524 909.728,-687.286"/>
<polygon fill="grey" stroke="grey" stroke-width="2" points="910.432,-683.833 899.839,-684.036 908.247,-690.484 910.432,-683.833"/>
</g>
<!-- 32&#45;&gt;44 -->
<g id="edge97" class="edge"><title>32&#45;&gt;44</title>
<path fill="none" stroke="grey" stroke-width="2" d="M1060.17,-719.966C1057.83,-672.291 1051.22,-537.185 1048.35,-478.63"/>
<polygon fill="grey" stroke="grey" stroke-width="2" points="1051.83,-478.123 1047.85,-468.306 1044.84,-478.466 1051.83,-478.123"/>
</g>
<!-- 33 -->
<g id="node34" class="node"><title>33</title>
<path fill="none" stroke="#b6d856" stroke-width="2" d="M458.876,-324C458.876,-324 329.124,-324 329.124,-324 323.124,-324 317.124,-318 317.124,-312 317.124,-312 317.124,-300 317.124,-300 317.124,-294 323.124,-288 329.124,-288 329.124,-288 458.876,-288 458.876,-288 464.876,-288 470.876,-294 470.876,-300 470.876,-300 470.876,-312 470.876,-312 470.876,-318 464.876,-324 458.876,-324"/>
<text text-anchor="middle" x="394" y="-303" font-family="sans" font-size="10.00">simulate_phenotype_4PopSplit</text>
</g>
<!-- 33&#45;&gt;22 -->
<g id="edge53" class="edge"><title>33&#45;&gt;22</title>
<path fill="none" stroke="grey" stroke-width="2" d="M430.205,-287.876C452.219,-277.464 480.334,-264.166 502.862,-253.511"/>
<polygon fill="grey" stroke="grey" stroke-width="2" points="504.597,-256.562 512.14,-249.123 501.604,-250.234 504.597,-256.562"/>
</g>
<!-- 33&#45;&gt;26 -->
<g id="edge62" class="edge"><title>33&#45;&gt;26</title>
<path fill="none" stroke="grey" stroke-width="2" d="M376.449,-287.697C367.766,-279.135 357.137,-268.656 347.652,-259.304"/>
<polygon fill="grey" stroke="grey" stroke-width="2" points="349.927,-256.633 340.349,-252.104 345.012,-261.617 349.927,-256.633"/>
</g>
<!-- 34&#45;&gt;22 -->
<g id="edge54" class="edge"><title>34&#45;&gt;22</title>
<path fill="none" stroke="grey" stroke-width="2" d="M676.545,-359.871C649.435,-334.711 598.732,-287.654 567.904,-259.042"/>
<polygon fill="grey" stroke="grey" stroke-width="2" points="570.231,-256.427 560.521,-252.189 565.47,-261.557 570.231,-256.427"/>
</g>
<!-- 35 -->
<g id="node36" class="node"><title>35</title>
<path fill="none" stroke="#d89c56" stroke-width="2" d="M1098.04,-1118C1098.04,-1118 971.963,-1118 971.963,-1118 965.963,-1118 959.963,-1112 959.963,-1106 959.963,-1106 959.963,-1094 959.963,-1094 959.963,-1088 965.963,-1082 971.963,-1082 971.963,-1082 1098.04,-1082 1098.04,-1082 1104.04,-1082 1110.04,-1088 1110.04,-1094 1110.04,-1094 1110.04,-1106 1110.04,-1106 1110.04,-1112 1104.04,-1118 1098.04,-1118"/>
<text text-anchor="middle" x="1035" y="-1102" font-family="sans" font-size="10.00">simulate_genotypes_4popsplit</text>
<text text-anchor="middle" x="1035" y="-1092" font-family="sans" font-size="10.00">rep: S1</text>
</g>
<!-- 35&#45;&gt;28 -->
<g id="edge64" class="edge"><title>35&#45;&gt;28</title>
<path fill="none" stroke="grey" stroke-width="2" d="M1045.53,-1081.89C1056.78,-1063.6 1075.15,-1033.75 1091,-1008 1112.07,-973.785 1136.39,-934.309 1151.96,-909.026"/>
<polygon fill="grey" stroke="grey" stroke-width="2" points="1155.02,-910.739 1157.28,-900.389 1149.06,-907.067 1155.02,-910.739"/>
</g>
<!-- 35&#45;&gt;30 -->
<g id="edge67" class="edge"><title>35&#45;&gt;30</title>
<path fill="none" stroke="grey" stroke-width="2" d="M1110.21,-1084.96C1216.54,-1062.94 1398,-1016.36 1398,-955 1398,-955 1398,-955 1398,-737 1398,-584.934 1376.74,-547.916 1370,-396 1369.29,-380.016 1363.42,-374.586 1370,-360 1375.18,-348.518 1384.21,-338.523 1393.72,-330.402"/>
<polygon fill="grey" stroke="grey" stroke-width="2" points="1396.09,-332.989 1401.74,-324.029 1391.73,-327.508 1396.09,-332.989"/>
</g>
<!-- 35&#45;&gt;33 -->
<g id="edge73" class="edge"><title>35&#45;&gt;33</title>
<path fill="none" stroke="grey" stroke-width="2" d="M959.796,-1099.45C777.326,-1098.53 326,-1083.27 326,-955 326,-955 326,-955 326,-593 326,-537.23 334.553,-523.717 337,-468 337,-468 337,-360 337,-360 341.933,-348.677 350.611,-338.682 359.729,-330.512"/>
<polygon fill="grey" stroke="grey" stroke-width="2" points="361.989,-333.185 367.42,-324.088 357.501,-327.812 361.989,-333.185"/>
</g>
<!-- 42 -->
<g id="node43" class="node"><title>42</title>
<path fill="none" stroke="#d88d56" stroke-width="2" d="M1179.6,-1046C1179.6,-1046 1112.4,-1046 1112.4,-1046 1106.4,-1046 1100.4,-1040 1100.4,-1034 1100.4,-1034 1100.4,-1020 1100.4,-1020 1100.4,-1014 1106.4,-1008 1112.4,-1008 1112.4,-1008 1179.6,-1008 1179.6,-1008 1185.6,-1008 1191.6,-1014 1191.6,-1020 1191.6,-1020 1191.6,-1034 1191.6,-1034 1191.6,-1040 1185.6,-1046 1179.6,-1046"/>
<text text-anchor="middle" x="1146" y="-1034" font-family="sans" font-size="10.00">format_VCF</text>
<text text-anchor="middle" x="1146" y="-1024" font-family="sans" font-size="10.00">chr: 0</text>
<text text-anchor="middle" x="1146" y="-1014" font-family="sans" font-size="10.00">model: 4PopSplit</text>
</g>
<!-- 35&#45;&gt;42 -->
<g id="edge89" class="edge"><title>35&#45;&gt;42</title>
<path fill="none" stroke="grey" stroke-width="2" d="M1061.59,-1081.99C1075.74,-1072.94 1093.38,-1061.66 1108.86,-1051.75"/>
<polygon fill="grey" stroke="grey" stroke-width="2" points="1111.15,-1054.45 1117.69,-1046.11 1107.38,-1048.55 1111.15,-1054.45"/>
</g>
<!-- 43 -->
<g id="node44" class="node"><title>43</title>
<path fill="none" stroke="#d88d56" stroke-width="2" d="M1031.6,-1046C1031.6,-1046 964.399,-1046 964.399,-1046 958.399,-1046 952.399,-1040 952.399,-1034 952.399,-1034 952.399,-1020 952.399,-1020 952.399,-1014 958.399,-1008 964.399,-1008 964.399,-1008 1031.6,-1008 1031.6,-1008 1037.6,-1008 1043.6,-1014 1043.6,-1020 1043.6,-1020 1043.6,-1034 1043.6,-1034 1043.6,-1040 1037.6,-1046 1031.6,-1046"/>
<text text-anchor="middle" x="998" y="-1034" font-family="sans" font-size="10.00">format_VCF</text>
<text text-anchor="middle" x="998" y="-1024" font-family="sans" font-size="10.00">chr: 1</text>
<text text-anchor="middle" x="998" y="-1014" font-family="sans" font-size="10.00">model: 4PopSplit</text>
</g>
<!-- 35&#45;&gt;43 -->
<g id="edge90" class="edge"><title>35&#45;&gt;43</title>
<path fill="none" stroke="grey" stroke-width="2" d="M1026.04,-1081.81C1021.85,-1073.77 1016.76,-1064 1012.08,-1055.01"/>
<polygon fill="grey" stroke="grey" stroke-width="2" points="1015.12,-1053.27 1007.39,-1046.02 1008.91,-1056.51 1015.12,-1053.27"/>
</g>
<!-- 35&#45;&gt;44 -->
<g id="edge93" class="edge"><title>35&#45;&gt;44</title>
<path fill="none" stroke="grey" stroke-width="2" d="M959.955,-1091.36C879.444,-1078.53 763,-1044.5 763,-955 763,-955 763,-955 763,-737 763,-696.553 760.142,-682.032 782,-648 835.962,-563.984 939.172,-503.097 999.632,-472.76"/>
<polygon fill="grey" stroke="grey" stroke-width="2" points="1001.54,-475.722 1008.95,-468.154 998.439,-469.446 1001.54,-475.722"/>
</g>
<!-- 36 -->
<g id="node37" class="node"><title>36</title>
<path fill="none" stroke="#80d856" stroke-width="2" d="M1026.3,-972C1026.3,-972 981.697,-972 981.697,-972 975.697,-972 969.697,-966 969.697,-960 969.697,-960 969.697,-948 969.697,-948 969.697,-942 975.697,-936 981.697,-936 981.697,-936 1026.3,-936 1026.3,-936 1032.3,-936 1038.3,-942 1038.3,-948 1038.3,-948 1038.3,-960 1038.3,-960 1038.3,-966 1032.3,-972 1026.3,-972"/>
<text text-anchor="middle" x="1004" y="-951" font-family="sans" font-size="10.00">concat_vcfs</text>
</g>
<!-- 36&#45;&gt;29 -->
<g id="edge65" class="edge"><title>36&#45;&gt;29</title>
<path fill="none" stroke="grey" stroke-width="2" d="M1011.17,-935.697C1014.43,-927.813 1018.37,-918.304 1022,-909.546"/>
<polygon fill="grey" stroke="grey" stroke-width="2" points="1025.32,-910.683 1025.91,-900.104 1018.85,-908.003 1025.32,-910.683"/>
</g>
<!-- 36&#45;&gt;44 -->
<g id="edge98" class="edge"><title>36&#45;&gt;44</title>
<path fill="none" stroke="grey" stroke-width="2" d="M989.245,-935.634C981.91,-925.849 973.814,-913.008 970,-900 965.499,-884.646 969.042,-879.971 970,-864 977.719,-735.289 985.541,-703.465 1005,-576 1009.91,-543.855 1007.17,-534.66 1018,-504 1021.28,-494.704 1026.07,-485.089 1030.8,-476.642"/>
<polygon fill="grey" stroke="grey" stroke-width="2" points="1033.83,-478.405 1035.85,-468.006 1027.79,-474.872 1033.83,-478.405"/>
</g>
<!-- 37&#45;&gt;30 -->
<g id="edge66" class="edge"><title>37&#45;&gt;30</title>
<path fill="none" stroke="grey" stroke-width="2" d="M1439.79,-359.697C1438.35,-351.983 1436.63,-342.712 1435.04,-334.112"/>
<polygon fill="grey" stroke="grey" stroke-width="2" points="1438.44,-333.297 1433.18,-324.104 1431.56,-334.575 1438.44,-333.297"/>
</g>
<!-- 38 -->
<g id="node39" class="node"><title>38</title>
<path fill="none" stroke="#d89c56" stroke-width="2" stroke-dasharray="5,2" d="M1365.04,-612C1365.04,-612 1238.96,-612 1238.96,-612 1232.96,-612 1226.96,-606 1226.96,-600 1226.96,-600 1226.96,-588 1226.96,-588 1226.96,-582 1232.96,-576 1238.96,-576 1238.96,-576 1365.04,-576 1365.04,-576 1371.04,-576 1377.04,-582 1377.04,-588 1377.04,-588 1377.04,-600 1377.04,-600 1377.04,-606 1371.04,-612 1365.04,-612"/>
<text text-anchor="middle" x="1302" y="-596" font-family="sans" font-size="10.00">simulate_genotypes_4popsplit</text>
<text text-anchor="middle" x="1302" y="-586" font-family="sans" font-size="10.00">rep: {wildcards.rep}</text>
</g>
<!-- 38&#45;&gt;31 -->
<g id="edge68" class="edge"><title>38&#45;&gt;31</title>
<path fill="none" stroke="grey" stroke-width="2" d="M1377.14,-584.322C1439.67,-576.072 1530.64,-561.673 1608,-540 1692.16,-516.42 1712.91,-507.254 1791,-468 1830.42,-448.183 1873.05,-420.808 1901.41,-401.668"/>
<polygon fill="grey" stroke="grey" stroke-width="2" points="1903.43,-404.526 1909.74,-396.01 1899.5,-398.737 1903.43,-404.526"/>
</g>
<!-- 38&#45;&gt;34 -->
<g id="edge74" class="edge"><title>38&#45;&gt;34</title>
<path fill="none" stroke="grey" stroke-width="2" d="M1288.8,-575.967C1260.72,-541.244 1191.12,-462.949 1112,-432 1046.02,-406.189 840.223,-389.042 744.671,-382.264"/>
<polygon fill="grey" stroke="grey" stroke-width="2" points="744.897,-378.772 734.677,-381.565 744.409,-385.755 744.897,-378.772"/>
</g>
<!-- 38&#45;&gt;46 -->
<g id="edge103" class="edge"><title>38&#45;&gt;46</title>
<path fill="none" stroke="grey" stroke-width="2" d="M1377.13,-586.705C1460.67,-578.941 1599.35,-563.776 1717,-540 1718.24,-539.749 1719.5,-539.486 1720.76,-539.213"/>
<polygon fill="grey" stroke="grey" stroke-width="2" points="1721.59,-542.613 1730.54,-536.942 1720.01,-535.794 1721.59,-542.613"/>
</g>
<!-- 38&#45;&gt;48 -->
<g id="edge106" class="edge"><title>38&#45;&gt;48</title>
<path fill="none" stroke="grey" stroke-width="2" d="M1226.95,-582.101C1130.36,-568.073 964.635,-544.005 877.458,-531.345"/>
<polygon fill="grey" stroke="grey" stroke-width="2" points="877.881,-527.869 867.482,-529.896 876.875,-534.797 877.881,-527.869"/>
</g>
<!-- 39 -->
<g id="node40" class="node"><title>39</title>
<path fill="none" stroke="#a7d856" stroke-width="2" d="M1961,-468C1961,-468 1931,-468 1931,-468 1925,-468 1919,-462 1919,-456 1919,-456 1919,-444 1919,-444 1919,-438 1925,-432 1931,-432 1931,-432 1961,-432 1961,-432 1967,-432 1973,-438 1973,-444 1973,-444 1973,-456 1973,-456 1973,-462 1967,-468 1961,-468"/>
<text text-anchor="middle" x="1946" y="-447" font-family="sans" font-size="10.00">calc_Tm</text>
</g>
<!-- 39&#45;&gt;31 -->
<g id="edge70" class="edge"><title>39&#45;&gt;31</title>
<path fill="none" stroke="grey" stroke-width="2" d="M1943.03,-431.697C1941.71,-423.983 1940.12,-414.712 1938.65,-406.112"/>
<polygon fill="grey" stroke="grey" stroke-width="2" points="1942.07,-405.369 1936.93,-396.104 1935.17,-406.552 1942.07,-405.369"/>
</g>
<!-- 40&#45;&gt;33 -->
<g id="edge72" class="edge"><title>40&#45;&gt;33</title>
<path fill="none" stroke="grey" stroke-width="2" d="M406.045,-359.697C404.282,-351.983 402.163,-342.712 400.197,-334.112"/>
<polygon fill="grey" stroke="grey" stroke-width="2" points="403.55,-333.073 397.91,-324.104 396.726,-334.633 403.55,-333.073"/>
</g>
<!-- 41 -->
<g id="node42" class="node"><title>41</title>
<path fill="none" stroke="#a7d856" stroke-width="2" d="M722,-468C722,-468 692,-468 692,-468 686,-468 680,-462 680,-456 680,-456 680,-444 680,-444 680,-438 686,-432 692,-432 692,-432 722,-432 722,-432 728,-432 734,-438 734,-444 734,-444 734,-456 734,-456 734,-462 728,-468 722,-468"/>
<text text-anchor="middle" x="707" y="-447" font-family="sans" font-size="10.00">calc_Tm</text>
</g>
<!-- 41&#45;&gt;34 -->
<g id="edge76" class="edge"><title>41&#45;&gt;34</title>
<path fill="none" stroke="grey" stroke-width="2" d="M704.034,-431.697C702.711,-423.983 701.122,-414.712 699.648,-406.112"/>
<polygon fill="grey" stroke="grey" stroke-width="2" points="703.072,-405.369 697.932,-396.104 696.172,-406.552 703.072,-405.369"/>
</g>
<!-- 42&#45;&gt;36 -->
<g id="edge77" class="edge"><title>42&#45;&gt;36</title>
<path fill="none" stroke="grey" stroke-width="2" d="M1109.8,-1007.9C1090.79,-998.395 1067.36,-986.678 1047.38,-976.69"/>
<polygon fill="grey" stroke="grey" stroke-width="2" points="1048.69,-973.431 1038.18,-972.09 1045.56,-979.692 1048.69,-973.431"/>
</g>
<!-- 42&#45;&gt;44 -->
<g id="edge94" class="edge"><title>42&#45;&gt;44</title>
<path fill="none" stroke="grey" stroke-width="2" d="M1191.68,-1015.99C1252.64,-999.622 1353,-960.858 1353,-883 1353,-883 1353,-883 1353,-809 1353,-736.587 1374.89,-703.184 1328,-648 1294.69,-608.798 1257.2,-645.31 1218,-612 1176.8,-576.988 1201.11,-541.333 1162,-504 1147.85,-490.492 1129.64,-479.971 1111.9,-471.993"/>
<polygon fill="grey" stroke="grey" stroke-width="2" points="1113.27,-468.769 1102.7,-468.05 1110.51,-475.204 1113.27,-468.769"/>
</g>
<!-- 43&#45;&gt;36 -->
<g id="edge78" class="edge"><title>43&#45;&gt;36</title>
<path fill="none" stroke="grey" stroke-width="2" d="M999.545,-1007.72C1000.21,-999.887 1000.99,-990.585 1001.72,-981.99"/>
<polygon fill="grey" stroke="grey" stroke-width="2" points="1005.21,-982.263 1002.56,-972.003 998.233,-981.673 1005.21,-982.263"/>
</g>
<!-- 43&#45;&gt;44 -->
<g id="edge95" class="edge"><title>43&#45;&gt;44</title>
<path fill="none" stroke="grey" stroke-width="2" d="M978.286,-1007.73C953.176,-982.359 913,-933.831 913,-883 913,-883 913,-883 913,-809 913,-667.283 940.911,-629.886 1006,-504 1011.05,-494.235 1017.96,-484.457 1024.66,-476.006"/>
<polygon fill="grey" stroke="grey" stroke-width="2" points="1027.57,-477.99 1031.23,-468.048 1022.16,-473.536 1027.57,-477.99"/>
</g>
<!-- 44&#45;&gt;37 -->
<g id="edge79" class="edge"><title>44&#45;&gt;37</title>
<path fill="none" stroke="grey" stroke-width="2" d="M1103.32,-439.045C1173,-426.727 1291.86,-405.717 1368.89,-392.1"/>
<polygon fill="grey" stroke="grey" stroke-width="2" points="1369.77,-395.5 1379.01,-390.312 1368.55,-388.606 1369.77,-395.5"/>
</g>
<!-- 44&#45;&gt;40 -->
<g id="edge84" class="edge"><title>44&#45;&gt;40</title>
<path fill="none" stroke="grey" stroke-width="2" d="M990.75,-442.819C875.596,-430.164 613.02,-401.31 484.14,-387.147"/>
<polygon fill="grey" stroke="grey" stroke-width="2" points="484.291,-383.643 473.969,-386.03 483.526,-390.601 484.291,-383.643"/>
</g>
<!-- 45&#45;&gt;39 -->
<g id="edge82" class="edge"><title>45&#45;&gt;39</title>
<path fill="none" stroke="grey" stroke-width="2" d="M1932.45,-503.697C1934.45,-495.898 1936.87,-486.509 1939.1,-477.829"/>
<polygon fill="grey" stroke="grey" stroke-width="2" points="1942.5,-478.661 1941.6,-468.104 1935.72,-476.918 1942.5,-478.661"/>
</g>
<!-- 46&#45;&gt;39 -->
<g id="edge83" class="edge"><title>46&#45;&gt;39</title>
<path fill="none" stroke="grey" stroke-width="2" d="M1819.1,-503.876C1846.78,-492.341 1882.97,-477.264 1909.61,-466.162"/>
<polygon fill="grey" stroke="grey" stroke-width="2" points="1911.08,-469.343 1918.96,-462.266 1908.38,-462.882 1911.08,-469.343"/>
</g>
<!-- 47&#45;&gt;41 -->
<g id="edge87" class="edge"><title>47&#45;&gt;41</title>
<path fill="none" stroke="grey" stroke-width="2" d="M707,-503.697C707,-495.983 707,-486.712 707,-478.112"/>
<polygon fill="grey" stroke="grey" stroke-width="2" points="710.5,-478.104 707,-468.104 703.5,-478.104 710.5,-478.104"/>
</g>
<!-- 48&#45;&gt;41 -->
<g id="edge88" class="edge"><title>48&#45;&gt;41</title>
<path fill="none" stroke="grey" stroke-width="2" d="M792.357,-503.876C777.472,-494.655 758.934,-483.172 742.941,-473.265"/>
<polygon fill="grey" stroke="grey" stroke-width="2" points="744.702,-470.238 734.358,-467.947 741.015,-476.189 744.702,-470.238"/>
</g>
</g>
</svg>
